<?xml version="1.0" encoding="utf-8"?>
<!-- Generator: Adobe Illustrator 25.2.1, SVG Export Plug-In . SVG Version: 6.00 Build 0)  -->
<svg version="1.1" id="Capa_1" xmlns="http://www.w3.org/2000/svg" xmlns:xlink="http://www.w3.org/1999/xlink" x="0px" y="0px"
	 viewBox="0 0 32 32" style="enable-background:new 0 0 32 32;" xml:space="preserve">
<style type="text/css">
	.st0{fill:#2196F3;}
	.st1{fill:#1878C6;}
	.st2{fill:#1565C0;}
	.st3{fill:#10519D;}
</style>
<path class="st0" d="M16,25.2V32l15-14.6c0.6-0.6,0.6-1.5,0-2l-2.5-2.5"/>
<path class="st1" d="M16,25.2V32L1,17.4c-0.6-0.6-0.6-1.5,0-2l2.5-2.5"/>
<path class="st2" d="M28.4,12.8l-6,6H16v-6"/>
<path class="st3" d="M3.6,12.8l6,6H16v-6"/>
<path class="st2" d="M16,6h6l-3,3.2L16,6z"/>
<path class="st1" d="M16,0l-6,6h6V0z"/>
<path class="st0" d="M16,0l6,6h-6V0z"/>
<path class="st3" d="M16,6h-6l3,3.2L16,6z"/>
<path class="st0" d="M24.3,10.2c0.5-0.6,0.5-1.4,0-2L22,6l-6,6.4v6.4"/>
<path class="st1" d="M7.7,10.2c-0.5-0.6-0.5-1.4,0-2L10,6l6,6.4v6.4"/>
</svg>
