<?xml version="1.0" encoding="utf-8"?>
<!-- Generator: Adobe Illustrator 25.2.1, SVG Export Plug-In . SVG Version: 6.00 Build 0)  -->
<svg version="1.1" id="Capa_1" xmlns="http://www.w3.org/2000/svg" xmlns:xlink="http://www.w3.org/1999/xlink" x="0px" y="0px"
	 viewBox="0 0 96 32" style="enable-background:new 0 0 96 32;" xml:space="preserve">
<style type="text/css">
	.st0{fill:#2196F3;}
	.st1{fill:#1878C6;}
	.st2{fill:#1565C0;}
	.st3{fill:#10519D;}
	.st4{fill:#FFFFFF;}
</style>
<g>
	<path class="st0" d="M16.5,25.2V32l15-14.6c0.6-0.6,0.6-1.5,0-2l-2.5-2.5"/>
	<path class="st1" d="M16.5,25.2V32l-15-14.6c-0.6-0.6-0.6-1.5,0-2l2.5-2.5"/>
	<path class="st2" d="M28.9,12.8l-6,6h-6.4v-6"/>
	<path class="st3" d="M4.1,12.8l6,6h6.4v-6"/>
	<path class="st2" d="M16.5,6h6l-3,3.2L16.5,6z"/>
	<path class="st1" d="M16.5,0l-6,6h6V0z"/>
	<path class="st0" d="M16.5,0l6,6h-6V0z"/>
	<path class="st3" d="M16.5,6h-6l3,3.2L16.5,6z"/>
	<path class="st0" d="M24.8,10.2c0.5-0.6,0.5-1.4,0-2L22.5,6l-6,6.4v6.4"/>
	<path class="st1" d="M8.2,10.2c-0.5-0.6-0.5-1.4,0-2L10.5,6l6,6.4v6.4"/>
	<g>
		<path class="st4" d="M36.6,17.9l0.8,1.9l-0.8,1.9l-5.1-11.5h1.7L36.6,17.9L36.6,17.9z M41.7,10.2l-3.8,8.5l-0.8-1.9l2.9-6.6H41.7z
			"/>
		<path class="st4" d="M47.4,12.7V14h-5v-1.2H47.4z M42.4,17.7v-1.2h4.4v1.2H42.4z M43.6,20.2h3.7v1.2h-5v-1.2L43.6,20.2L43.6,20.2z
			"/>
		<path class="st4" d="M49,12.7h1.2v8.7H49V12.7z M50.9,21.4v-1.2h2.8v1.2H50.9z"/>
		<path class="st4" d="M58.4,12.6v1.2c-1.6,0.2-2.9,1.5-2.9,3.2c0,1.7,1.2,3,2.9,3.2v1.2c-2.3-0.2-4.1-2.1-4.1-4.4
			C54.3,14.7,56.2,12.8,58.4,12.6z M63.3,17.1c0,2.3-1.8,4.3-4.1,4.4v-1.2c1.6-0.2,2.9-1.5,2.9-3.2c0-1.7-1.2-3-2.9-3.2v-1.2
			C61.5,12.8,63.3,14.7,63.3,17.1z"/>
		<path class="st4" d="M71.7,21.4h-1.5l-2.4-3.5l-2.4,3.5h-1.5l3.2-4.5l-3-4.2h1.5L71.7,21.4z M68.9,16.4l-0.7-1l1.8-2.6h1.5
			L68.9,16.4z"/>
		<path class="st4" d="M73.2,21.4v-8.7h1.2v8.7H73.2z"/>
		<path class="st4" d="M84.2,21.4h-1.3L82,19.6h0l-2-4.3l-2,4.3h0l-0.8,1.9h-1.3l4.1-8.9L84.2,21.4z"/>
		<path class="st4" d="M86.1,15.7l1,1.8l-0.6,4h-1.3L86.1,15.7z M93.8,14.5L90,21.6l-3.7-7.1l0.3-2l3.4,6.6l3.4-6.6L93.8,14.5z
			 M94.9,21.4h-1.3l-0.6-4l0.9-1.8L94.9,21.4z"/>
	</g>
</g>
</svg>
